<svg xmlns="http://www.w3.org/2000/svg" viewBox="0 0 56.7 42.75"><title>Cloud MD Icon</title><g id="Layer_25" data-name="Layer 25"><path id="_Path_" data-name="&lt;Path&gt;" d="M12.57,41.27a12.57,12.57,0,0,1-.75-25.12l.75,0a12.89,12.89,0,0,1,2,.16l.85.13-.16-.84a12.81,12.81,0,0,1-.22-2.33A12.59,12.59,0,0,1,27.64.68C36.23.68,39.11,7.74,40.07,12a1.78,1.78,0,0,1-1.74,2.17h0a1.77,1.77,0,0,1-1.74-1.38c-1.27-5.61-4.34-8.45-9.13-8.45a9,9,0,0,0-6.13,15.28,1.37,1.37,0,0,1,0,1.93l-.64.64a1.37,1.37,0,0,1-1,.41,1.34,1.34,0,0,1-.9-.34A9,9,0,1,0,12,37.64l.54,0a8.91,8.91,0,0,0,5-1.53l0,0L36,18.12l.43-.33a12.57,12.57,0,1,1,6.69,23.47H26.29a1.78,1.78,0,0,1-1.78-1.78v0a1.78,1.78,0,0,1,1.78-1.78h16.8a9,9,0,0,0,.86-17.82,9.16,9.16,0,0,0-1.28-.09,9,9,0,0,0-4.22,1.06l-.08,0L22.44,36.43l-2.16,1.9a11.66,11.66,0,0,1-2.49,1.81A12.5,12.5,0,0,1,12.57,41.27Z" style="fill:#228dc7"/></g></svg>