<svg xmlns="http://www.w3.org/2000/svg" viewBox="0 0 183.7 43.05"><title>Cloud MD</title><g id="Layer_25" data-name="Layer 25"><path id="_Path_" data-name="&lt;Path&gt;" d="M12.57,41.82a12.57,12.57,0,0,1-.75-25.12l.75,0a12.89,12.89,0,0,1,2,.16l.85.13-.16-.84a12.81,12.81,0,0,1-.22-2.33A12.59,12.59,0,0,1,27.64,1.23c8.59,0,11.47,7.07,12.42,11.28a1.78,1.78,0,0,1-1.74,2.17h0a1.77,1.77,0,0,1-1.74-1.38c-1.27-5.61-4.34-8.45-9.13-8.45a9,9,0,0,0-6.13,15.28,1.37,1.37,0,0,1,0,1.93l-.64.64a1.37,1.37,0,0,1-1,.41,1.34,1.34,0,0,1-.9-.34A9,9,0,1,0,12,38.2l.54,0a8.91,8.91,0,0,0,5-1.53l0,0L36,18.67l.43-.33a12.57,12.57,0,1,1,6.69,23.47H26.29A1.78,1.78,0,0,1,24.51,40v0a1.78,1.78,0,0,1,1.78-1.78h16.8a9,9,0,0,0,.86-17.82,9.16,9.16,0,0,0-1.28-.09,9,9,0,0,0-4.22,1.06l-.08,0L22.44,37l-2.16,1.9a11.66,11.66,0,0,1-2.49,1.81A12.5,12.5,0,0,1,12.57,41.82Z" style="fill:#fff"/><g id="_Group_" data-name="&lt;Group&gt;"><path id="_Compound_Path_" data-name="&lt;Compound Path&gt;" d="M79,38.84a.71.71,0,0,1-.05,1,8.09,8.09,0,0,1-5.18,1.84,7.78,7.78,0,0,1-8.12-8.05c0-5,3.55-8.05,8.12-8.05A8.19,8.19,0,0,1,79,27.46a.71.71,0,0,1,0,1.05h0a.7.7,0,0,1-.92,0,6.79,6.79,0,0,0-4.27-1.47,6.25,6.25,0,0,0-6.58,6.58,6.25,6.25,0,0,0,6.58,6.58A6.69,6.69,0,0,0,78,38.73a.7.7,0,0,1,.94,0Z" style="fill:#fff"/><path id="_Compound_Path_2" data-name="&lt;Compound Path&gt;" d="M83,19.9v21a.7.7,0,0,1-.7.7h-.16a.7.7,0,0,1-.7-.7v-21a.7.7,0,0,1,.7-.7h.16A.7.7,0,0,1,83,19.9Z" style="fill:#fff"/><path id="_Compound_Path_3" data-name="&lt;Compound Path&gt;" d="M85.48,33.71a8,8,0,1,1,16,0,8,8,0,1,1-16,0Zm14.51,0a6.49,6.49,0,1,0-13,0,6.49,6.49,0,1,0,13,0Z" style="fill:#fff"/><path id="_Compound_Path_4" data-name="&lt;Compound Path&gt;" d="M116.8,40.87V38.72a6.28,6.28,0,0,1-5.62,3.1c-4.22,0-7.12-2.59-7.12-7v-8.4a.7.7,0,0,1,.7-.7h.16a.7.7,0,0,1,.7.7v8.37c0,3.58,2.2,5.5,5.62,5.46a5.48,5.48,0,0,0,5.53-5.75V26.45a.7.7,0,0,1,.7-.7h.16a.7.7,0,0,1,.7.7V40.87a.7.7,0,0,1-.7.7h-.13A.7.7,0,0,1,116.8,40.87Z" style="fill:#fff"/><path id="_Compound_Path_5" data-name="&lt;Compound Path&gt;" d="M136.32,19.9v21a.7.7,0,0,1-.7.7h-.13a.7.7,0,0,1-.7-.7V38.09a7.43,7.43,0,0,1-6.58,3.74c-4.41,0-7.89-2.91-7.89-8.15s3.51-8.15,7.92-8.15a7,7,0,0,1,6.55,3.71V19.9a.7.7,0,0,1,.7-.7h.13A.7.7,0,0,1,136.32,19.9ZM121.85,33.68c0,4.38,2.91,6.61,6.45,6.61a6.31,6.31,0,0,0,6.45-6.65A6.32,6.32,0,0,0,128.3,27C124.75,27,121.85,29.24,121.85,33.68Z" style="fill:#fff"/><path id="_Path_2" data-name="&lt;Path&gt;" d="M159.14,41.66a1.23,1.23,0,0,1-1.23-1.23V23.92l-6.62,10a1.61,1.61,0,0,1-2.68,0l-6.59-10v16.5a1.23,1.23,0,0,1-1.23,1.23h-.31a1.23,1.23,0,0,1-1.23-1.23V20.93a1.83,1.83,0,0,1,3.36-1L150,31.14,157.21,20a1.87,1.87,0,0,1,3.43,1V40.43a1.23,1.23,0,0,1-1.23,1.23Z" style="fill:#fff"/><path id="_Compound_Path_6" data-name="&lt;Compound Path&gt;" d="M164.77,41.66a1.23,1.23,0,0,1-1.23-1.23V20.35a1.23,1.23,0,0,1,1.23-1.23h6.58c7.72,0,11.3,5.53,11.43,11a11.54,11.54,0,0,1-3.1,8.33,11.3,11.3,0,0,1-8.32,3.2Zm1.65-19.86a.11.11,0,0,0-.11.11V38.83a.11.11,0,0,0,.11.11h4.93a8.52,8.52,0,0,0,6.27-2.4,8.88,8.88,0,0,0,2.39-6.4,8.17,8.17,0,0,0-8.65-8.36Z" style="fill:#fff"/></g></g></svg>