<svg xmlns="http://www.w3.org/2000/svg" viewBox="0 0 106.5 89.63"><title>Empty Avatar</title><g id="Layer_25" data-name="Layer 25"><path d="M51.23,66.79S67.42,62.14,72.67,50.3C76.52,41.58,76,42.36,76,42.36s4.87-3,5.18-7S75.71,29,75.71,29,77.84,1.58,51,1H49.64C22.84,1.58,25,29,25,29s-5.79,2.44-5.48,6.39,5.18,7,5.18,7-.25-.43,3.35,7.94c5.11,11.9,21.82,16.49,21.82,16.49Z" style="fill:none;stroke:#228ec8;stroke-miterlimit:10"/><path d="M1,87.3c2.6-5.31,6.52-10.18,12.44-12A91.3,91.3,0,0,0,39.1,62.63" style="fill:none;stroke:#228ec8;stroke-miterlimit:10"/><path d="M97.54,81.51a32.73,32.73,0,0,1,3.8,5.95" style="fill:none;stroke:#228ec8;stroke-miterlimit:10"/><path d="M62.4,61.87a88.58,88.58,0,0,0,15,8.88" style="fill:none;stroke:#228ec8;stroke-miterlimit:10"/><rect x="77.37" y="60.54" width="27.01" height="20.97" style="fill:none;stroke:#228ec8;stroke-linecap:round;stroke-linejoin:round"/><rect x="80.9" y="63.72" width="3.01" height="2.16" style="fill:none;stroke:#228ec8;stroke-linecap:round;stroke-linejoin:round"/><polyline points="97.93 60.54 97.93 58.65 101.14 58.65 101.14 60.54" style="fill:none;stroke:#228ec8;stroke-linecap:round;stroke-linejoin:round"/><circle cx="93.68" cy="71.02" r="2.69" style="fill:none;stroke:#228ec8;stroke-linecap:round;stroke-linejoin:round"/><circle cx="93.68" cy="71.02" r="7.46" style="fill:none;stroke:#228ec8;stroke-linecap:round;stroke-linejoin:round"/></g></svg>