<svg xmlns="http://www.w3.org/2000/svg" width="25.56" height="24.15" viewBox="0 0 25.56 24.15">
  <title>add_clinic</title>
  <g id="Layer_2" data-name="Layer 2">
    <g id="Layer_25" data-name="Layer 25">
      <g>
        <g>
          <polyline points="21.15 15.43 21.15 10.94 24.53 10.94 12.48 0.5 0.5 10.94 3.95 10.94 3.95 21.84 9.54 21.84 9.54 14.93 15.64 14.93 15.64 21.84 17.52 21.84" fill="none" stroke="#228dc7" stroke-linecap="round" stroke-linejoin="round"/>
          <polygon points="11.43 7.69 11.43 5.78 13.59 5.78 13.59 7.69 15.51 7.69 15.51 9.85 13.59 9.85 13.59 11.77 11.43 11.77 11.43 9.85 9.52 9.85 9.52 7.69 11.43 7.69" fill="none" stroke="#228dc7" stroke-linecap="round" stroke-linejoin="round"/>
        </g>
        <g>
          <g>
            <line x1="20.94" y1="17.15" x2="20.94" y2="21.9" fill="none" stroke="#228dc7" stroke-linecap="round" stroke-linejoin="round"/>
            <line x1="23.31" y1="19.53" x2="18.57" y2="19.53" fill="none" stroke="#228dc7" stroke-linecap="round" stroke-linejoin="round"/>
          </g>
          <path d="M16.82,19.53a4.12,4.12,0,1,1,2,3.55L18.72,23A4.12,4.12,0,0,1,16.82,19.53Z" fill="none" stroke="#228dc7" stroke-linecap="round" stroke-linejoin="round"/>
        </g>
      </g>
    </g>
  </g>
</svg>
