<svg xmlns="http://www.w3.org/2000/svg" width="23.06" height="22.67" viewBox="0 0 23.06 22.67">
  <title>add_user</title>
  <g id="Layer_2" data-name="Layer 2">
    <g id="Layer_25" data-name="Layer 25">
      <g>
        <g>
          <path d="M11.1,13.14s3.12-.89,4.12-3.17.64-1.53.64-1.53.94-.58,1-1.34S15.8,5.88,15.8,5.88,16.21.62,11.06.5h-.27C5.65.62,6.06,5.88,6.06,5.88S4.95,6.35,5,7.11,6,8.45,6,8.45s-.35-.76.64,1.53,4.19,3.17,4.19,3.17Z" fill="none" stroke="#228dc7" stroke-linecap="round" stroke-linejoin="round"/>
          <path d="M16.48,21.3c-2.63.15-5.26.2-5.26.2h-.3S1.38,21.32.5,20.62c0,0,.35-4.91,3.33-5.85a17.54,17.54,0,0,0,4.94-2.43" fill="none" stroke="#228dc7" stroke-linecap="round" stroke-linejoin="round"/>
          <path d="M13.24,12.2a17.7,17.7,0,0,0,5.08,2.57" fill="none" stroke="#228dc7" stroke-linecap="round" stroke-linejoin="round"/>
          <polyline points="14.31 12.93 11.08 16.16 7.9 12.98" fill="none" stroke="#228dc7" stroke-linecap="round" stroke-linejoin="round"/>
          <polyline points="15.62 13.66 11.08 21.52 6.54 13.68" fill="none" stroke="#228dc7" stroke-linecap="round" stroke-linejoin="round"/>
          <polyline points="15.34 19.75 14.63 19.75 14.63 17.43 15.24 17.43" fill="none" stroke="#228dc7" stroke-linecap="round" stroke-linejoin="round"/>
        </g>
        <g>
          <g>
            <line x1="18.86" y1="16.34" x2="18.86" y2="20.6" fill="none" stroke="#228dc7" stroke-linecap="round" stroke-linejoin="round"/>
            <line x1="20.99" y1="18.47" x2="16.73" y2="18.47" fill="none" stroke="#228dc7" stroke-linecap="round" stroke-linejoin="round"/>
          </g>
          <path d="M15.16,18.47A3.7,3.7,0,1,1,17,21.66l-.11-.07A3.7,3.7,0,0,1,15.16,18.47Z" fill="none" stroke="#228dc7" stroke-linecap="round" stroke-linejoin="round"/>
        </g>
      </g>
    </g>
  </g>
</svg>
