<svg xmlns="http://www.w3.org/2000/svg" width="29.3" height="29.25" viewBox="0 0 29.3 29.25">
  <title>add_hospital</title>
  <g id="Layer_2" data-name="Layer 2">
    <g id="Layer_25" data-name="Layer 25">
      <g>
        <g>
          <rect x="2.74" y="10.05" width="1.91" height="2.63" fill="none" stroke="#228dc7" stroke-linecap="round" stroke-linejoin="round"/>
          <rect x="2.74" y="14.46" width="1.91" height="2.63" fill="none" stroke="#228dc7" stroke-linecap="round" stroke-linejoin="round"/>
          <rect x="2.74" y="18.86" width="1.91" height="2.63" fill="none" stroke="#228dc7" stroke-linecap="round" stroke-linejoin="round"/>
        </g>
        <g>
          <rect x="20.01" y="10.05" width="1.91" height="2.63" fill="none" stroke="#228dc7" stroke-linecap="round" stroke-linejoin="round"/>
          <rect x="20.01" y="14.46" width="1.91" height="2.63" fill="none" stroke="#228dc7" stroke-linecap="round" stroke-linejoin="round"/>
          <polyline points="20.19 21.5 20.01 21.5 20.01 18.86 21.92 18.86 21.92 19.9" fill="none" stroke="#228dc7" stroke-linecap="round" stroke-linejoin="round"/>
        </g>
        <g>
          <g>
            <polyline points="9.31 26.06 6.79 26.06 6.79 0.5 17.8 0.5 17.8 26.06 15.3 26.06" fill="none" stroke="#228dc7" stroke-linecap="round" stroke-linejoin="round"/>
            <polyline points="24.09 19.36 24.09 6.4 17.8 6.4 17.8 26.06 19.82 26.06" fill="none" stroke="#228dc7" stroke-linecap="round" stroke-linejoin="round"/>
            <rect x="0.5" y="6.4" width="6.29" height="19.67" transform="translate(7.29 32.46) rotate(180)" fill="none" stroke="#228dc7" stroke-linecap="round" stroke-linejoin="round"/>
            <polygon points="11.38 4.72 11.38 3.09 13.21 3.09 13.21 4.72 14.84 4.72 14.84 6.56 13.21 6.56 13.21 8.19 11.38 8.19 11.38 6.56 9.75 6.56 9.75 4.72 11.38 4.72" fill="none" stroke="#228dc7" stroke-linecap="round" stroke-linejoin="round"/>
            <polyline points="15.27 26.06 15.27 17.15 9.31 17.15 9.31 26.06" fill="none" stroke="#228dc7" stroke-linecap="round" stroke-linejoin="round"/>
          </g>
          <g>
            <g>
              <line x1="24.11" y1="21.35" x2="24.11" y2="26.76" fill="none" stroke="#228dc7" stroke-linecap="round" stroke-linejoin="round"/>
              <line x1="26.81" y1="24.06" x2="21.4" y2="24.06" fill="none" stroke="#228dc7" stroke-linecap="round" stroke-linejoin="round"/>
            </g>
            <path d="M19.41,24.06a4.69,4.69,0,1,1,2.31,4L21.58,28A4.69,4.69,0,0,1,19.41,24.06Z" fill="none" stroke="#228dc7" stroke-linecap="round" stroke-linejoin="round"/>
          </g>
        </g>
      </g>
    </g>
  </g>
</svg>
