<svg xmlns="http://www.w3.org/2000/svg" width="22.86" height="23.7" viewBox="0 0 22.86 23.7">
  <g id="add_appointment" data-name="Layer 2">
    <g id="Layer_25" data-name="Layer 25">
      <g>
        <g>
          <polyline points="15.6 21.81 0.5 21.81 0.5 2.23 5.07 2.23 5.42 2.23 15.5 2.23 17.38 2.23 20.4 2.23 20.4 16.01" fill="none" stroke="#228dc7" stroke-linecap="round" stroke-linejoin="round"/>
          <line x1="20.4" y1="7.4" x2="0.5" y2="7.4" fill="none" stroke="#228dc7" stroke-linecap="round" stroke-linejoin="round"/>
          <line x1="0.63" y1="12.22" x2="20.34" y2="12.22" fill="none" stroke="#228dc7" stroke-linecap="round" stroke-linejoin="round"/>
          <line x1="0.63" y1="17.04" x2="15.52" y2="17.04" fill="none" stroke="#228dc7" stroke-linecap="round" stroke-linejoin="round"/>
          <line x1="5.47" y1="21.82" x2="5.47" y2="7.38" fill="none" stroke="#228dc7" stroke-linecap="round" stroke-linejoin="round"/>
          <line x1="10.44" y1="21.82" x2="10.44" y2="7.38" fill="none" stroke="#228dc7" stroke-linecap="round" stroke-linejoin="round"/>
          <line x1="15.41" y1="17.22" x2="15.41" y2="7.38" fill="none" stroke="#228dc7" stroke-linecap="round" stroke-linejoin="round"/>
          <line x1="15.41" y1="21.8" x2="15.41" y2="21.58" fill="none" stroke="#228dc7" stroke-linecap="round" stroke-linejoin="round"/>
          <g>
            <line x1="5.84" y1="0.5" x2="5.84" y2="3.92" fill="none" stroke="#228dc7" stroke-linecap="round" stroke-linejoin="round"/>
            <line x1="10.45" y1="0.5" x2="10.45" y2="3.92" fill="none" stroke="#228dc7" stroke-linecap="round" stroke-linejoin="round"/>
            <line x1="15.05" y1="0.5" x2="15.05" y2="3.92" fill="none" stroke="#228dc7" stroke-linecap="round" stroke-linejoin="round"/>
          </g>
        </g>
        <g>
          <g>
            <line x1="18.56" y1="17.2" x2="18.56" y2="21.59" fill="none" stroke="#228dc7" stroke-linecap="round" stroke-linejoin="round"/>
            <line x1="20.75" y1="19.4" x2="16.37" y2="19.4" fill="none" stroke="#228dc7" stroke-linecap="round" stroke-linejoin="round"/>
          </g>
          <path d="M14.75,19.4a3.8,3.8,0,1,1,1.87,3.28l-.11-.07A3.8,3.8,0,0,1,14.75,19.4Z" fill="none" stroke="#228dc7" stroke-linecap="round" stroke-linejoin="round"/>
        </g>
      </g>
    </g>
  </g>
</svg>
