<svg xmlns="http://www.w3.org/2000/svg" width="27.48" height="19.84" viewBox="0 0 27.48 19.84">
  <title>add_hmo</title>
  <g id="Layer_2" data-name="Layer 2">
    <g id="Layer_25" data-name="Layer 25">
      <g>
        <g>
          <polyline points="18.91 16.73 0.5 16.73 0.5 0.5 24.94 0.5 24.94 11.56" fill="none" stroke="#228dc7" stroke-linecap="round" stroke-linejoin="round"/>
          <g>
            <g>
              <line x1="13.12" y1="5.75" x2="22.52" y2="5.75" fill="none" stroke="#228dc7" stroke-linecap="round" stroke-linejoin="round"/>
              <line x1="13.12" y1="8.62" x2="19.09" y2="8.62" fill="none" stroke="#228dc7" stroke-linecap="round" stroke-linejoin="round"/>
              <line x1="13.12" y1="11.48" x2="20.76" y2="11.48" fill="none" stroke="#228dc7" stroke-linecap="round" stroke-linejoin="round"/>
            </g>
            <polygon points="5.51 7.16 5.51 4.57 8.43 4.57 8.43 7.16 11.02 7.16 11.02 10.08 8.43 10.08 8.43 12.67 5.51 12.67 5.51 10.08 2.92 10.08 2.92 7.16 5.51 7.16" fill="none" stroke="#228dc7" stroke-linecap="round" stroke-linejoin="round"/>
          </g>
        </g>
        <g>
          <g>
            <line x1="22.79" y1="12.73" x2="22.79" y2="17.56" fill="none" stroke="#228dc7" stroke-linecap="round" stroke-linejoin="round"/>
            <line x1="25.2" y1="15.15" x2="20.37" y2="15.15" fill="none" stroke="#228dc7" stroke-linecap="round" stroke-linejoin="round"/>
          </g>
          <path d="M18.6,15.15a4.19,4.19,0,1,1,2.06,3.61l-.12-.07A4.19,4.19,0,0,1,18.6,15.15Z" fill="none" stroke="#228dc7" stroke-linecap="round" stroke-linejoin="round"/>
        </g>
      </g>
    </g>
  </g>
</svg>
