<svg xmlns="http://www.w3.org/2000/svg" width="20" height="20" viewBox="0 0 17.77 23.23">
  <title>Asset 11</title>
  <g id="admissions" data-name="Layer 2">
    <g id="Layer_25" data-name="Layer 25">
      <g>
        <g>
          <polygon points="5.29 17.94 0.5 17.94 5.29 22.73 5.29 17.94" fill="none" stroke="#228dc7" stroke-linecap="round" stroke-linejoin="round"/>
          <polyline points="5.29 22.73 17.24 22.73 17.27 22.73 17.27 22.63 17.27 20.26 17.27 0.5 0.5 0.5 0.5 17.98" fill="none" stroke="#228dc7" stroke-linecap="round" stroke-linejoin="round"/>
          <g>
            <line x1="3.81" y1="13.15" x2="13.95" y2="13.15" fill="none" stroke="#228dc7" stroke-linecap="round" stroke-linejoin="round"/>
            <line x1="3.81" y1="15.65" x2="13.95" y2="15.65" fill="none" stroke="#228dc7" stroke-linecap="round" stroke-linejoin="round"/>
          </g>
        </g>
        <g>
          <path d="M8.89,7.58a2.65,2.65,0,0,0,1.56-1.2c.38-.86.24-.58.24-.58s.35-.22.38-.51-.4-.46-.4-.46a1.82,1.82,0,0,0-1.79-2h-.1A1.82,1.82,0,0,0,7,4.83s-.42.18-.4.46S7,5.8,7,5.8s-.13-.29.24.58a2.68,2.68,0,0,0,1.58,1.2Z" fill="none" stroke="#228dc7" stroke-linecap="round" stroke-linejoin="round"/>
          <path d="M9.7,7.22a6.69,6.69,0,0,0,1.92,1c1.13.35,1.26,2.21,1.26,2.21a22,22,0,0,1-3.94.33H8.83a22,22,0,0,1-3.94-.33S5,8.54,6.14,8.19A6.63,6.63,0,0,0,8,7.27" fill="none" stroke="#228dc7" stroke-linecap="round" stroke-linejoin="round"/>
        </g>
      </g>
    </g>
  </g>
</svg>
