<svg xmlns="http://www.w3.org/2000/svg" width="23.06" height="22.67" viewBox="0 0 23.06 22.67">
  <title>Add Patient</title>
  <g id="add_patient" data-name="Layer 2">
    <g id="Layer_25" data-name="Layer 25">
      <g>
        <g>
          <path d="M11.11,13.16s3.13-.89,4.12-3.17.64-1.53.64-1.53.94-.58,1-1.34-1.05-1.23-1.05-1.23S16.23.62,11.08.5h-.27C5.65.62,6.06,5.89,6.06,5.89S5,6.36,5,7.12,6,8.46,6,8.46,5.65,7.7,6.65,10s4.2,3.17,4.2,3.17Z" fill="none" stroke="#228dc7" stroke-linecap="round" stroke-linejoin="round"/>
          <path d="M16.46,21.33c-2.61.15-5.22.19-5.22.19h-.3S1.38,21.35.5,20.65c0,0,.35-4.92,3.34-5.86a17.56,17.56,0,0,0,4.94-2.43" fill="none" stroke="#228dc7" stroke-linecap="round" stroke-linejoin="round"/>
          <path d="M13.26,12.21a17.72,17.72,0,0,0,5.08,2.58" fill="none" stroke="#228dc7" stroke-linecap="round" stroke-linejoin="round"/>
          <path d="M7.24,13.37A4.88,4.88,0,0,0,15,13.3" fill="none" stroke="#228dc7" stroke-linecap="round" stroke-linejoin="round"/>
        </g>
        <g>
          <g>
            <line x1="18.86" y1="16.34" x2="18.86" y2="20.6" fill="none" stroke="#228dc7" stroke-linecap="round" stroke-linejoin="round"/>
            <line x1="20.99" y1="18.47" x2="16.73" y2="18.47" fill="none" stroke="#228dc7" stroke-linecap="round" stroke-linejoin="round"/>
          </g>
          <path d="M15.16,18.47A3.7,3.7,0,1,1,17,21.66l-.11-.07A3.7,3.7,0,0,1,15.16,18.47Z" fill="none" stroke="#228dc7" stroke-linecap="round" stroke-linejoin="round"/>
        </g>
      </g>
    </g>
  </g>
</svg>