<svg xmlns="http://www.w3.org/2000/svg" width="14.83" height="16.08" viewBox="0 0 14.83 16.08">
  <g id="attach_icon" data-name="Layer 2">
    <g id="Layer_25" data-name="Layer 25">
      <g>
        <path d="M1.72,8.81,8.91,1.45a3.16,3.16,0,0,1,4.46-.05h0a3.16,3.16,0,0,1,.05,4.46L6.23,13.22" fill="none" stroke="#1cae99" stroke-linecap="round" stroke-linejoin="round"/>
        <path d="M12.86,6.41,4.61,14.86a2.39,2.39,0,0,1-3.39,0h0a2.39,2.39,0,0,1,0-3.39L9.44,3.06" fill="none" stroke="#1cae99" stroke-linecap="round" stroke-linejoin="round"/>
        <path d="M2.83,9.82l6.85-7a1.52,1.52,0,0,1,2.15,0h0a1.52,1.52,0,0,1,0,2.15L4.74,12.22" fill="none" stroke="#1cae99" stroke-linecap="round" stroke-linejoin="round"/>
      </g>
    </g>
  </g>
</svg>
