<svg xmlns="http://www.w3.org/2000/svg" width="20.61" height="22" viewBox="0 0 20.61 22">
  <title>Asset 14</title>
  <g id="Layer_2" data-name="Layer 2">
    <g id="Layer_25" data-name="Layer 25">
      <g>
        <polygon points="15.62 21.5 0.5 21.5 0.5 2.2 20.11 2.2 20.11 17 15.62 21.5" fill="none" stroke="#228dc7" stroke-linecap="round" stroke-linejoin="round"/>
        <polygon points="15.62 17 20.11 17 15.62 21.5 15.62 17" fill="none" stroke="#228dc7" stroke-linecap="round" stroke-linejoin="round"/>
        <line x1="20.11" y1="7.31" x2="0.5" y2="7.31" fill="none" stroke="#228dc7" stroke-linecap="round" stroke-linejoin="round"/>
        <g>
          <line x1="5.73" y1="0.5" x2="5.73" y2="3.9" fill="none" stroke="#228dc7" stroke-linecap="round" stroke-linejoin="round"/>
          <line x1="10.31" y1="0.5" x2="10.31" y2="3.9" fill="none" stroke="#228dc7" stroke-linecap="round" stroke-linejoin="round"/>
          <line x1="14.88" y1="0.5" x2="14.88" y2="3.9" fill="none" stroke="#228dc7" stroke-linecap="round" stroke-linejoin="round"/>
        </g>
        <g>
          <path d="M8.81,12.33H7.23a.58.58,0,0,1,0-1.16h2.84a.61.61,0,0,1,.41,1.07L8.93,13.67a1.83,1.83,0,0,1,2,1.8c0,1.14-.81,2.12-2.51,2.12a2.2,2.2,0,0,1-1.9-1,.6.6,0,1,1,1-.64,1.29,1.29,0,0,0,1,.47c.57,0,1.12-.24,1.12-1,0-1-1.18-.82-1.82-.75a.6.6,0,0,1-.56-1Z" fill="#228dc7"/>
          <path d="M13,12.64l-.56.22a.59.59,0,1,1-.34-1.13l1.31-.48c.43-.19.82,0,.82.65v5.2c0,.69-1.22.71-1.22,0Z" fill="#228dc7"/>
        </g>
      </g>
    </g>
  </g>
</svg>