<svg xmlns="http://www.w3.org/2000/svg" width="15.63" height="21" viewBox="0 0 15.63 21">
  <g id="doc_icon" data-name="Layer 2">
    <g id="Layer_25" data-name="Layer 25">
      <g>
        <polyline points="10.96 2.52 15.13 2.52 15.13 20.5 0.5 20.5 0.5 2.52 4.67 2.52" fill="none" stroke="#1cae99" stroke-linecap="round" stroke-linejoin="round"/>
        <polyline points="5.62 18.3 12.92 18.3 12.94 18.3 12.94 18.23 12.94 4.72 11.45 4.72" fill="none" stroke="#1cae99" stroke-linecap="round" stroke-linejoin="round"/>
        <polygon points="5.62 15.37 2.69 15.37 5.62 18.3 5.62 15.37" fill="none" stroke="#1cae99" stroke-linecap="round" stroke-linejoin="round"/>
        <polyline points="2.69 15.39 2.69 4.72 4.12 4.72" fill="none" stroke="#1cae99" stroke-linecap="round" stroke-linejoin="round"/>
        <polyline points="9.37 2.02 10.84 2.02 11.59 5.27 4.04 5.27 4.79 2.02 6.29 2.02" fill="none" stroke="#1cae99" stroke-linecap="round" stroke-linejoin="round"/>
        <path d="M9.33,2a1.52,1.52,0,0,0-3,0" fill="none" stroke="#1cae99" stroke-linecap="round" stroke-linejoin="round"/>
        <g>
          <line x1="4.71" y1="11.92" x2="11.05" y2="11.92" fill="none" stroke="#1cae99" stroke-linecap="round" stroke-linejoin="round"/>
          <g>
            <line x1="7.88" y1="9.64" x2="7.88" y2="7.05" fill="none" stroke="#1cae99" stroke-linecap="round" stroke-linejoin="round"/>
            <line x1="9.17" y1="8.35" x2="6.58" y2="8.35" fill="none" stroke="#1cae99" stroke-linecap="round" stroke-linejoin="round"/>
          </g>
          <line x1="4.71" y1="13.58" x2="11.05" y2="13.58" fill="none" stroke="#1cae99" stroke-linecap="round" stroke-linejoin="round"/>
        </g>
      </g>
    </g>
  </g>
</svg>