<svg xmlns="http://www.w3.org/2000/svg" width="21" height="19.34" viewBox="0 0 21 19.34">
  <title>reminders</title>
  <g id="reminder_icon" data-name="Layer 2">
    <g id="Layer_25" data-name="Layer 25">
      <g>
        <circle cx="10.41" cy="10.43" r="8.41" fill="none" stroke="#228dc7" stroke-linecap="round" stroke-linejoin="round"/>
        <circle cx="10.41" cy="10.43" r="6.89" fill="none" stroke="#228dc7" stroke-linecap="round" stroke-linejoin="round"/>
        <g>
          <line x1="10.41" y1="3.69" x2="10.41" y2="4.45" fill="none" stroke="#228dc7" stroke-linecap="round" stroke-linejoin="round"/>
          <line x1="10.41" y1="16.42" x2="10.41" y2="17.18" fill="none" stroke="#228dc7" stroke-linecap="round" stroke-linejoin="round"/>
          <line x1="15.19" y1="5.7" x2="14.64" y2="6.2" fill="none" stroke="#228dc7" stroke-linecap="round" stroke-linejoin="round"/>
          <line x1="6.17" y1="14.67" x2="5.64" y2="15.2" fill="none" stroke="#228dc7" stroke-linecap="round" stroke-linejoin="round"/>
          <line x1="17.15" y1="10.43" x2="16.39" y2="10.43" fill="none" stroke="#228dc7" stroke-linecap="round" stroke-linejoin="round"/>
          <line x1="4.42" y1="10.43" x2="3.66" y2="10.43" fill="none" stroke="#228dc7" stroke-linecap="round" stroke-linejoin="round"/>
          <line x1="15.18" y1="15.2" x2="14.64" y2="14.67" fill="none" stroke="#228dc7" stroke-linecap="round" stroke-linejoin="round"/>
          <line x1="6.17" y1="6.2" x2="5.64" y2="5.68" fill="none" stroke="#228dc7" stroke-linecap="round" stroke-linejoin="round"/>
        </g>
        <circle cx="10.41" cy="10.43" r="0.3" fill="none" stroke="#228dc7" stroke-linecap="round" stroke-linejoin="round"/>
        <line x1="10.41" y1="10.43" x2="8.8" y2="6.78" fill="none" stroke="#228dc7" stroke-linecap="round" stroke-linejoin="round"/>
        <line x1="10.41" y1="10.43" x2="15.3" y2="12.46" fill="none" stroke="#228dc7" stroke-linecap="round" stroke-linejoin="round"/>
        <g>
          <path d="M6.58,1.53A3.71,3.71,0,0,0,1.35,6.75Z" fill="none" stroke="#228dc7" stroke-linecap="round" stroke-linejoin="round"/>
          <line x1="1.27" y1="1.48" x2="1.57" y2="1.78" fill="none" stroke="#228dc7" stroke-linecap="round" stroke-linejoin="round"/>
        </g>
        <g>
          <path d="M14.42,1.35a3.71,3.71,0,0,1,5.22,5.22Z" fill="none" stroke="#228dc7" stroke-linecap="round" stroke-linejoin="round"/>
          <line x1="19.73" y1="1.31" x2="19.43" y2="1.6" fill="none" stroke="#228dc7" stroke-linecap="round" stroke-linejoin="round"/>
        </g>
      </g>
    </g>
  </g>
</svg>
