<svg xmlns="http://www.w3.org/2000/svg" width="23.26" height="22.07" viewBox="0 0 23.26 22.07">
  <title>search</title>
  <g id="Layer_2" data-name="Layer 2">
    <g id="Layer_25" data-name="Layer 25">
      <path id="_Compound_Path_" data-name="&lt;Compound Path&gt;" d="M.45,22A.63.63,0,0,1,.21,21l6.53-6A9.25,9.25,0,0,1,14.42,0a9.21,9.21,0,0,1,6.42,3,9.27,9.27,0,0,1-7.29,15.51,9.15,9.15,0,0,1-2.31-.41A9.31,9.31,0,0,1,7.6,16l-6.53,6A.64.64,0,0,1,.45,22Zm16-20.4a8,8,0,0,0-2-.36,8,8,0,1,0-.75,16A8,8,0,0,0,16.4,1.64Z" fill="#228dc7"/>
    </g>
  </g>
</svg>
