<svg xmlns="http://www.w3.org/2000/svg" width="23.5" height="21.4" viewBox="0 0 23.5 21.4">
  <g id="surgery-performed" data-name="Layer 2">
    <g id="Layer_25" data-name="Layer 25">
      <g>
        <line x1="6.62" y1="20.9" x2="20.72" y2="20.9" fill="none" stroke="#228dc7" stroke-linecap="round" stroke-linejoin="round" stroke-dasharray="2"/>
        <g>
          <path d="M1,1H1A1.62,1.62,0,0,0,1,3.31L12.87,14.94l1.06.06.87.85,1.56-1.53-.56-1.17L3.37,1A1.71,1.71,0,0,0,1,1Z" fill="none" stroke="#228dc7" stroke-linecap="round" stroke-linejoin="round"/>
          <path d="M16.37,14.33,23,20.82l-.39,0a8.7,8.7,0,0,1-6.68-2.44l-1.22-1.2.1-1.35Z" fill="none" stroke="#228dc7" stroke-linecap="round" stroke-linejoin="round"/>
          <line x1="17.29" y1="17.32" x2="18.69" y2="18.7" fill="none" stroke="#228dc7" stroke-linecap="round" stroke-linejoin="round"/>
          <line x1="19.62" y1="19.61" x2="19.15" y2="19.14" fill="none" stroke="#228dc7" stroke-linecap="round" stroke-linejoin="round"/>
          <line x1="4.72" y1="2.28" x2="2.79" y2="5.09" fill="none" stroke="#228dc7" stroke-linecap="round" stroke-linejoin="round"/>
          <line x1="5.83" y1="3.37" x2="3.9" y2="6.17" fill="none" stroke="#228dc7" stroke-linecap="round" stroke-linejoin="round"/>
          <line x1="6.93" y1="4.45" x2="5" y2="7.25" fill="none" stroke="#228dc7" stroke-linecap="round" stroke-linejoin="round"/>
        </g>
      </g>
    </g>
  </g>
</svg>
