<svg xmlns="http://www.w3.org/2000/svg" width="21.37" height="21.71" viewBox="0 0 21.37 21.71">
  <g id="user_icon" data-name="Layer 2">
    <g id="Layer_25" data-name="Layer 25">
      <g>
        <path d="M10.71,12.65s3-.85,4-3,.62-1.47.62-1.47.9-.56,1-1.29-1-1.18-1-1.18S15.62.61,10.67.5h-.26C5.46.61,5.86,5.67,5.86,5.67s-1.07.45-1,1.18,1,1.29,1,1.29-.34-.73.62,1.47,4,3,4,3Z" fill="none" stroke="#1cae99" stroke-miterlimit="10"/>
        <path d="M12.77,11.74a17,17,0,0,0,4.88,2.47c2.87.9,3.2,5.62,3.2,5.62-.84.67-10,.84-10,.84h-.29s-9.18-.17-10-.84c0,0,.34-4.72,3.2-5.62a16.86,16.86,0,0,0,4.74-2.33" fill="none" stroke="#1cae99" stroke-miterlimit="10"/>
        <polyline points="13.79 12.45 10.69 15.55 7.63 12.5" fill="none" stroke="#1cae99" stroke-miterlimit="10"/>
        <polyline points="15.05 13.15 10.69 20.71 6.33 13.17" fill="none" stroke="#1cae99" stroke-miterlimit="10"/>
        <rect x="14.09" y="16.78" width="3.67" height="2.23" fill="none" stroke="#1cae99" stroke-miterlimit="10"/>
      </g>
    </g>
  </g>
</svg>